HIERARCHY
ROOT Hips
{
    OFFSET   0.000000   0.000000   0.000000
    CHANNELS 6 Xposition Yposition Zposition Zrotation Xrotation Yrotation
    JOINT Chest
    {
        OFFSET   0.000000   8.007230   0.000000
        CHANNELS 3 Zrotation Xrotation Yrotation
        JOINT Chest2
        {
            OFFSET   0.000000  22.077100   0.000000
            CHANNELS 3 Zrotation Xrotation Yrotation
            JOINT Neck
            {
                OFFSET   0.000000  23.255100   0.000000
                CHANNELS 3 Zrotation Xrotation Yrotation
                JOINT Head
                {
                    OFFSET   0.000000  14.370100   1.956600
                    CHANNELS 3 Zrotation Xrotation Yrotation
                    End Site
                    {
                        OFFSET   0.000000  19.566000   0.000000
                    }
                }
            }
            JOINT LeftCollar
            {
                OFFSET   3.911900  19.017000  -0.467063
                CHANNELS 3 Zrotation Xrotation Yrotation
                JOINT LeftShoulder
                {
                    OFFSET  10.383700   0.000000   0.000000
                    CHANNELS 3 Zrotation Xrotation Yrotation
                    JOINT LeftElbow
                    {
                        OFFSET  26.662100   0.001193   0.000980
                        CHANNELS 3 Zrotation Xrotation Yrotation
                        JOINT LeftWrist
                        {
                            OFFSET  28.869000  -0.000059  -0.000082
                            CHANNELS 3 Zrotation Xrotation Yrotation
                            JOINT LeftFinger0
                            {
                                OFFSET   2.044650  -2.323450   3.252850
                                CHANNELS 3 Zrotation Xrotation Yrotation
                                JOINT LeftFinger01
                                {
                                    OFFSET   3.088130   0.000000   0.000000
                                    CHANNELS 3 Zrotation Xrotation Yrotation
                                    JOINT LeftFinger02
                                    {
                                        OFFSET   2.639460   0.000000   0.000000
                                        CHANNELS 3 Zrotation Xrotation Yrotation
                                        End Site
                                        {
                                            OFFSET   2.582190   0.000000   0.000000
                                        }
                                    }
                                }
                            }
                            JOINT LeftFinger1
                            {
                                OFFSET   8.364480   0.000000   3.252850
                                CHANNELS 3 Zrotation Xrotation Yrotation
                                JOINT LeftFinger11
                                {
                                    OFFSET   4.646930   0.000000   0.000000
                                    CHANNELS 3 Zrotation Xrotation Yrotation
                                    JOINT LeftFinger12
                                    {
                                        OFFSET   2.323470   0.000000   0.000000
                                        CHANNELS 3 Zrotation Xrotation Yrotation
                                        End Site
                                        {
                                            OFFSET   2.273050   0.000000   0.000000
                                        }
                                    }
                                }
                            }
                            JOINT LeftFinger2
                            {
                                OFFSET   8.364490   0.000016   1.078090
                                CHANNELS 3 Zrotation Xrotation Yrotation
                                JOINT LeftFinger21
                                {
                                    OFFSET   5.111610   0.000000   0.000000
                                    CHANNELS 3 Zrotation Xrotation Yrotation
                                    JOINT LeftFinger22
                                    {
                                        OFFSET   2.788150   0.000016   0.000000
                                        CHANNELS 3 Zrotation Xrotation Yrotation
                                        End Site
                                        {
                                            OFFSET   2.727660   0.000000   0.000000
                                        }
                                    }
                                }
                            }
                            JOINT LeftFinger3
                            {
                                OFFSET   7.899780   0.000015  -1.078090
                                CHANNELS 3 Zrotation Xrotation Yrotation
                                JOINT LeftFinger31
                                {
                                    OFFSET   4.646930   0.000000   0.000000
                                    CHANNELS 3 Zrotation Xrotation Yrotation
                                    JOINT LeftFinger32
                                    {
                                        OFFSET   2.323470   0.000000   0.000000
                                        CHANNELS 3 Zrotation Xrotation Yrotation
                                        End Site
                                        {
                                            OFFSET   2.273050   0.000000   0.000000
                                        }
                                    }
                                }
                            }
                            JOINT LeftFinger4
                            {
                                OFFSET   7.435090   0.000000  -3.252850
                                CHANNELS 3 Zrotation Xrotation Yrotation
                                JOINT LeftFinger41
                                {
                                    OFFSET   3.717550   0.000000   0.000000
                                    CHANNELS 3 Zrotation Xrotation Yrotation
                                    JOINT LeftFinger42
                                    {
                                        OFFSET   1.858770   0.000000   0.000000
                                        CHANNELS 3 Zrotation Xrotation Yrotation
                                        End Site
                                        {
                                            OFFSET   1.818440   0.000000   0.000000
                                        }
                                    }
                                }
                            }
                        }
                    }
                }
            }
            JOINT RightCollar
            {
                OFFSET  -3.911910  19.017000  -0.467062
                CHANNELS 3 Zrotation Xrotation Yrotation
                JOINT RightShoulder
                {
                    OFFSET -10.383700   0.000014   0.000000
                    CHANNELS 3 Zrotation Xrotation Yrotation
                    JOINT RightElbow
                    {
                        OFFSET -26.662100   0.001225   0.001091
                        CHANNELS 3 Zrotation Xrotation Yrotation
                        JOINT RightWrist
                        {
                            OFFSET -28.869000  -0.000020  -0.000085
                            CHANNELS 3 Zrotation Xrotation Yrotation
                            JOINT RightFinger0
                            {
                                OFFSET  -2.044650  -2.323490   3.252850
                                CHANNELS 3 Zrotation Xrotation Yrotation
                                JOINT RightFinger01
                                {
                                    OFFSET  -3.088130   0.000000   0.000000
                                    CHANNELS 3 Zrotation Xrotation Yrotation
                                    JOINT RightFinger02
                                    {
                                        OFFSET  -2.639460   0.000000   0.000000
                                        CHANNELS 3 Zrotation Xrotation Yrotation
                                        End Site
                                        {
                                            OFFSET  -2.582190   0.000000   0.000000
                                        }
                                    }
                                }
                            }
                            JOINT RightFinger1
                            {
                                OFFSET  -8.364480   0.000000   3.252850
                                CHANNELS 3 Zrotation Xrotation Yrotation
                                JOINT RightFinger11
                                {
                                    OFFSET  -4.646930   0.000000   0.000000
                                    CHANNELS 3 Zrotation Xrotation Yrotation
                                    JOINT RightFinger12
                                    {
                                        OFFSET  -2.323470   0.000000   0.000000
                                        CHANNELS 3 Zrotation Xrotation Yrotation
                                        End Site
                                        {
                                            OFFSET  -2.273050   0.000000   0.000000
                                        }
                                    }
                                }
                            }
                            JOINT RightFinger2
                            {
                                OFFSET  -8.364480   0.000000   1.078090
                                CHANNELS 3 Zrotation Xrotation Yrotation
                                JOINT RightFinger21
                                {
                                    OFFSET  -5.111620   0.000000   0.000000
                                    CHANNELS 3 Zrotation Xrotation Yrotation
                                    JOINT RightFinger22
                                    {
                                        OFFSET  -2.788160   0.000000   0.000000
                                        CHANNELS 3 Zrotation Xrotation Yrotation
                                        End Site
                                        {
                                            OFFSET  -2.727660   0.000000   0.000000
                                        }
                                    }
                                }
                            }
                            JOINT RightFinger3
                            {
                                OFFSET  -7.899780   0.000000  -1.078090
                                CHANNELS 3 Zrotation Xrotation Yrotation
                                JOINT RightFinger31
                                {
                                    OFFSET  -4.646930   0.000000   0.000000
                                    CHANNELS 3 Zrotation Xrotation Yrotation
                                    JOINT RightFinger32
                                    {
                                        OFFSET  -2.323470   0.000000   0.000000
                                        CHANNELS 3 Zrotation Xrotation Yrotation
                                        End Site
                                        {
                                            OFFSET  -2.273050   0.000000   0.000000
                                        }
                                    }
                                }
                            }
                            JOINT RightFinger4
                            {
                                OFFSET  -7.435090   0.000000  -3.252850
                                CHANNELS 3 Zrotation Xrotation Yrotation
                                JOINT RightFinger41
                                {
                                    OFFSET  -3.717550   0.000000   0.000000
                                    CHANNELS 3 Zrotation Xrotation Yrotation
                                    JOINT RightFinger42
                                    {
                                        OFFSET  -1.858760   0.000000   0.000000
                                        CHANNELS 3 Zrotation Xrotation Yrotation
                                        End Site
                                        {
                                            OFFSET  -1.818440   0.000000   0.000000
                                        }
                                    }
                                }
                            }
                        }
                    }
                }
            }
        }
    }
    JOINT LeftHip
    {
        OFFSET   9.783030   0.000000   0.000000
        CHANNELS 3 Zrotation Xrotation Yrotation
        JOINT LeftKnee
        {
            OFFSET   0.000063 -41.789100   0.000608
            CHANNELS 3 Zrotation Xrotation Yrotation
            JOINT LeftAnkle
            {
                OFFSET   0.000048 -41.133200  -0.000184
                CHANNELS 3 Zrotation Xrotation Yrotation
                JOINT LeftToe
                {
                    OFFSET   0.000000  -6.358960  14.674500
                    CHANNELS 3 Zrotation Xrotation Yrotation
                    End Site
                    {
                        OFFSET   0.000000   0.000000   3.913200
                    }
                }
            }
        }
    }
    JOINT RightHip
    {
        OFFSET  -9.783030   0.000000   0.000000
        CHANNELS 3 Zrotation Xrotation Yrotation
        JOINT RightKnee
        {
            OFFSET   0.000071 -41.789100   0.001239
            CHANNELS 3 Zrotation Xrotation Yrotation
            JOINT RightAnkle
            {
                OFFSET   0.000037 -41.133200  -0.000166
                CHANNELS 3 Zrotation Xrotation Yrotation
                JOINT RightToe
                {
                    OFFSET   0.000000  -6.358960  14.674500
                    CHANNELS 3 Zrotation Xrotation Yrotation
                    End Site
                    {
                        OFFSET   0.000000   0.000000   3.913200
                    }
                }
            }
        }
    }
}
MOTION
Frames: 5
Frame Time:   0.016667
 -0.577873  89.951700   0.466063  -2.092730 -11.469200  -6.852070   0.905087   7.900790  -2.720930   2.224040  15.747700  -5.650300   3.186910   0.605635  -0.033680   5.237150   1.216660  10.106200  -5.840650  -7.525630   1.447740 -52.589000   9.042550 -64.654700   6.752160 -24.601800 -68.134600  18.071800 -34.562000   3.202860  36.788100  31.755600 -75.132900 -17.890400  -0.000032  -0.000000  -3.945210   0.002495  -0.004135 -22.820300   7.254550 -16.683500 -19.522300   0.000397  -0.001477 -13.665600   0.001738   0.004021 -24.627300   3.684730  -7.960730 -24.895800  -0.001712   0.021203 -16.580500  -0.001908   0.013945 -18.453800   1.942850  -5.796980 -18.546800   0.001786   0.000032 -12.352200   0.003301   0.004516 -19.428400  -2.944090   8.309040 -29.463400  -0.002836  -0.000976 -19.622700  -0.002608   0.003634   9.722800  -2.597310  13.307200  53.486200  -7.868080  55.991100 -12.568500 -23.613000  64.053400 -23.604400 -47.587000  23.918400 -49.138600  35.935100  73.391200   8.637480  -0.000588  -0.007619  -0.681272  -0.000026   0.001843   6.833170   0.422156   3.529550   5.599200   0.001482   0.002909   3.919440   0.005006  -0.000827   4.311620  -0.299337  -3.977630   4.318940   0.007477  -0.001270   2.876460   0.005143  -0.000079   9.386280  -1.650200  -9.881720   9.527650   0.001333   0.001231   6.345440   0.004278  -0.000130  16.117400  -4.882180 -16.426400  25.234300   0.000218  -0.000086  16.806000  -0.000180   0.000466   0.847822  13.043500   1.865400  -0.429565   2.872270  14.911100  -4.815740  -5.630680   5.956310   0.000000   0.000000   0.000000   2.593030  11.690500 -10.189600   0.024527   2.650330  -4.406700 -10.740400  -0.007197   4.369630  -0.000000   0.000000   0.000000
 -0.622478  89.949900   0.509183  -2.053460 -11.471600  -6.732910   0.879110   7.871920  -2.703380   2.167160  15.691700  -5.609910   3.121560   0.560668  -0.030550   5.129520   1.126710  10.065900  -5.836740  -7.469850   1.446350 -52.818700   8.559170 -64.642500   7.161630 -24.263400 -67.314200  19.164200 -33.268700   3.183890  36.608900  30.891000 -74.303500 -18.346800   0.000000   0.000000  -4.173410   0.002427  -0.004055 -22.701700   7.034270 -16.311500 -19.397800   0.000442  -0.001622 -13.578500   0.001676   0.003781 -23.948500   3.643250  -8.156210 -24.218200  -0.001586   0.017208 -16.129300  -0.001691   0.009865 -18.387900   1.848360  -5.539260 -18.477100   0.001718  -0.000214 -12.305700   0.003155   0.004418 -19.457500  -3.087330   8.674050 -29.534900  -0.002627  -0.001071 -19.670300  -0.002081   0.003564   9.666310  -2.476150  13.234400  53.716200  -8.273120  56.248700 -12.839700 -23.593100  63.026200 -25.428000 -46.963100  23.609800 -49.286000  35.971500  73.340400   8.317270  -0.000683  -0.005969  -0.841377  -0.000071   0.002368   6.830670   0.400422   3.334960   5.595380   0.001484   0.003468   3.916760   0.005004  -0.000548   4.234980  -0.308714  -4.185800   4.243730   0.007097  -0.000774   2.826360   0.005141   0.000313   9.281720  -1.660500 -10.060300   9.426470   0.001182   0.002248   6.278030   0.004155   0.000329  16.032900  -4.891830 -16.528600  25.115600   0.000443   0.000061  16.726900   0.000245   0.000880   0.854743  13.055900   1.862380  -0.422216   2.890420  14.867200  -4.848710  -5.646530   5.884110   0.000000   0.000000  -0.000000   2.603100  11.727700 -10.208500   0.052502   2.634620  -4.447520 -10.768700  -0.029635   4.310410   0.000000   0.000000   0.000000
 -0.665977  89.948300   0.550865  -2.017720 -11.471000  -6.622720   0.854036   7.844970  -2.688390   2.112630  15.639400  -5.574970   3.049140   0.516995  -0.027552   5.010320   1.039540  10.044000  -5.833430  -7.430830   1.455190 -52.915600   8.094500 -64.607500   7.414120 -24.058600 -66.615400  20.033000 -32.218200   3.176260  36.496700  30.474200 -73.895500 -18.550700  -0.000040  -0.000000  -4.275390   0.002366  -0.004008 -22.576500   6.942890 -16.233100 -19.283600   0.000489  -0.001694 -13.498500   0.001628   0.003544 -23.286200   3.704290  -8.586010 -23.570600  -0.001497   0.007722 -15.698000  -0.001449   0.004144 -18.275300   1.845050  -5.564920 -18.367000   0.001659  -0.000619 -12.232400   0.003011   0.004327 -19.503500  -3.138950   8.777630 -29.615600  -0.002457  -0.001249 -19.724000  -0.001504   0.003472   9.607310  -2.362350  13.162900  53.823600  -8.593590  56.483500 -13.116600 -23.670300  62.053100 -27.337900 -46.001300  23.305100 -49.442400  36.022700  73.297700   8.094690  -0.000797  -0.002429  -0.952657  -0.000112   0.002672   6.866240   0.387258   3.205320   5.623880   0.001485   0.003790   3.936710   0.005006  -0.000270   4.218040  -0.312868  -4.265370   4.227470   0.006715  -0.000260   2.815500   0.005140   0.000734   9.272100  -1.664070 -10.096000   9.415540   0.001061   0.003001   6.270720   0.004037   0.000724  15.975900  -4.869170 -16.496600  25.019800   0.000656   0.000256  16.663100   0.000669   0.001318   0.862483  13.064100   1.855240  -0.413914   2.915190  14.828600  -4.883160  -5.665660   5.820090  -0.000000   0.000000  -0.000000   2.611850  11.762500 -10.225300   0.079745   2.620870  -4.483550 -10.799700  -0.053309   4.249920  -0.000000   0.000000   0.000000
 -0.707198  89.946500   0.591259  -1.982980 -11.467200  -6.515830   0.829004   7.818140  -2.671510   2.057950  15.587400  -5.536260   2.974880   0.474485  -0.024671   4.888190   0.954605  10.019500  -5.827170  -7.392200   1.464040 -52.944700   7.647950 -64.556400   7.588710 -23.933400 -65.993100  20.745100 -31.289500   3.159070  36.448000  30.323300 -73.780400 -18.594900  -0.000151   0.000000  -4.297460   0.002305  -0.003963 -22.466200   6.904390 -16.209500 -19.186700   0.000544  -0.001709 -13.430700   0.001586   0.003308 -22.758900   3.766260  -8.892450 -23.051500  -0.001435   0.000469 -15.352300  -0.001230   0.000198 -18.155800   1.842970  -5.600640 -18.246300   0.001610  -0.001003 -12.152000   0.002869   0.004238 -19.535200  -3.146310   8.793980 -29.665900  -0.002303  -0.001421 -19.757500  -0.000917   0.003354   9.550780  -2.253880  13.083000  53.883400  -8.903620  56.690800 -13.406000 -23.762800  61.127900 -29.148600 -44.858900  23.093300 -49.635800  36.053900  73.267600   7.980660  -0.000943   0.000170  -1.009660  -0.000160   0.002804   6.940440   0.376499   3.084810   5.684930   0.001486   0.003941   3.979440   0.005007   0.000000   4.214870  -0.319565  -4.330520   4.225140   0.006331   0.000239   2.813950   0.005140   0.001128   9.268740  -1.670530 -10.131700   9.413980   0.000971   0.003594   6.269680   0.003920   0.001075  15.957400  -4.846500 -16.464700  24.985200   0.000871   0.000433  16.640100   0.001083   0.001754   0.869505  13.067700   1.844570  -0.404714   2.943300  14.793500  -4.917660  -5.685050   5.760070   0.000000   0.000000   0.000000   2.620550  11.793500 -10.245900   0.108597   2.609290  -4.524600 -10.833100  -0.080029   4.199710  -0.000000   0.000000   0.000000
 -0.744987  89.943800   0.629995  -1.947120 -11.460300  -6.405580   0.803002   7.788600  -2.646170   1.999990  15.530200  -5.480160   2.904620   0.434392  -0.021938   4.772660   0.873993   9.965050  -5.813510  -7.340030   1.443650 -52.936100   7.240640 -64.486500   7.745150 -23.883400 -65.428400  21.335700 -30.276100   2.974650  36.303900  30.265300 -73.805800 -18.583400  -0.000326  -0.000027  -4.291710   0.002236  -0.003889 -22.435500   6.882450 -16.183700 -19.157300   0.000610  -0.001679 -13.410000   0.001543   0.003067 -22.582400   3.752130  -8.894360 -22.870800  -0.001397  -0.000046 -15.232000  -0.001071  -0.000010 -18.046900   1.838380  -5.615140 -18.136800   0.001572  -0.001372 -12.079100   0.002725   0.004152 -19.462300  -3.130250   8.795650 -29.554400  -0.002135  -0.001596 -19.683300  -0.000339   0.003212   9.506430  -2.153820  12.974700  53.934000  -9.264520  56.868200 -13.711700 -23.807800  60.238100 -30.852700 -43.664300  22.937900 -49.438200  35.822500  72.966600   8.240270  -0.001128   0.000282  -0.879863  -0.000219   0.002825   7.032460   0.351552   2.875080   5.759870   0.001486   0.004082   4.031890   0.005008   0.000255   4.265270  -0.338494  -4.511710   4.277080   0.005948   0.000728   2.848540   0.005143   0.001501   9.306430  -1.714300 -10.352000   9.459900   0.000912   0.004109   6.300280   0.003799   0.001406  15.987400  -4.904380 -16.615600  25.052800   0.001098   0.000611  16.685100   0.001481   0.002189   0.874944  13.065600   1.829240  -0.394679   2.973540  14.759400  -4.951030  -5.701650   5.701130   0.000000   0.000000   0.000000   2.630520  11.817000 -10.279100   0.143629   2.599740  -4.586220 -10.872000  -0.112656   4.177770  -0.000000   0.000000  -0.000000
